<svg width="30" height="30" viewBox="0 0 30 30" fill="none" xmlns="http://www.w3.org/2000/svg">
<g clip-path="url(#clip0_1205_11510)">
<path d="M26.8637 14.1214V9.72743H16.3182V6.73754C17.106 6.28164 17.6364 5.43033 17.6364 4.4547C17.6364 2.99869 16.456 1.81836 15.0001 1.81836C13.5441 1.81836 12.3637 2.99875 12.3637 4.4547C12.3637 5.43033 12.8942 6.28158 13.6819 6.73754V9.72743H3.13634V14.1214H0.5V21.1517H3.13634V25.5456H11.0454V28.182H18.9545V25.5456H26.8635V21.1517H29.5V14.1214H26.8637ZM9.72727 17.6365C8.75667 17.6365 7.96971 16.8496 7.96971 15.8789C7.96971 14.9082 8.75667 14.1214 9.72727 14.1214C10.6979 14.1214 11.4848 14.9082 11.4848 15.8789C11.4848 16.8496 10.6979 17.6365 9.72727 17.6365ZM15 24.2274C12.8159 24.2274 11.0455 22.457 11.0455 20.2729H18.9545C18.9545 22.457 17.1841 24.2274 15 24.2274ZM20.2727 17.6365C19.3021 17.6365 18.5152 16.8496 18.5152 15.8789C18.5152 14.9082 19.3021 14.1214 20.2727 14.1214C21.2433 14.1214 22.0303 14.9082 22.0303 15.8789C22.0303 16.8496 21.2433 17.6365 20.2727 17.6365Z" fill="#9146FF"/>
</g>
<defs>
<clipPath id="clip0_1205_11510">
<rect x="0.5" y="0.5" width="29" height="29" rx="0.47125" fill="white"/>
</clipPath>
</defs>
</svg>
